<?xml version="1.0" encoding="utf-8"?>
<!-- Generator: Adobe Illustrator 26.0.2, SVG Export Plug-In . SVG Version: 6.00 Build 0)  -->
<svg version="1.1" id="Layer_1" xmlns="http://www.w3.org/2000/svg" xmlns:xlink="http://www.w3.org/1999/xlink" x="0px" y="0px"
	 viewBox="0 0 383.1 404.68" style="enable-background:new 0 0 383.1 404.68;" xml:space="preserve">
<path d="M61.9,402.61c-12.29,0-24.34-3.83-34.76-11.29C11.17,379.9,2.02,362.09,2.02,342.47V172.92c0-17.59,7.67-34.23,21.04-45.66
	L152.53,16.57c22.61-19.34,55.45-19.34,78.08,0l129.44,110.7c13.37,11.42,21.04,28.07,21.04,45.66v169.54
	c0,19.62-9.15,37.43-25.11,48.85c-15.96,11.42-35.77,14.34-54.35,8.01l-105.94-36.11c-0.72-0.25-1.41-0.57-2.06-0.98l-2.08-1.3
	l-2.08,1.3c-0.65,0.4-1.34,0.73-2.06,0.98L81.48,399.33C75.03,401.53,68.44,402.61,61.9,402.61z M191.56,21.89
	c-9.3,0-18.59,3.24-26.18,9.73L35.92,142.31c-8.97,7.66-14.11,18.82-14.11,30.61v169.54c0,13.16,6.14,25.1,16.84,32.76
	c10.7,7.66,23.99,9.61,36.44,5.37l95.72-32.63l-3.26-2.04c-0.22-0.14-0.44-0.29-0.65-0.44c-9.73-7.23-19.15-15.11-27.99-23.42
	c-16.04-15.07-36.11-35.39-48.97-58.89c-12.45-22.77-16.12-44.98-10.91-66.03c6.21-25.04,26.07-44.49,48.31-47.31
	c12.54-1.59,26.32,2.42,40.96,11.92c9.51,6.17,17.43,13.39,23.25,19.45c5.82-6.06,13.74-13.28,23.25-19.45
	c14.64-9.5,28.42-13.52,40.96-11.92c22.25,2.82,42.12,22.27,48.31,47.31c5.21,21.06,1.54,43.28-10.91,66.03
	c-12.88,23.51-32.94,43.82-48.97,58.89c-8.87,8.34-18.29,16.22-27.99,23.42c-0.21,0.16-0.43,0.3-0.65,0.44l-3.26,2.04l95.73,32.63
	c12.46,4.24,25.74,2.29,36.44-5.37c10.7-7.66,16.84-19.6,16.84-32.76V172.92c0-11.79-5.14-22.95-14.11-30.61L217.74,31.61
	C210.16,25.13,200.86,21.89,191.56,21.89z M178.4,329.36l13.15,8.23l13.16-8.23c8.98-6.68,17.7-13.99,25.92-21.72
	c14.97-14.07,33.63-32.91,45.17-53.98c10.13-18.52,13.1-35.45,9.06-51.77c-4.21-17-17.49-30.64-31.59-32.43
	c-16.95-2.15-39.89,15.54-54.05,32.89c-1.88,2.3-4.69,3.64-7.67,3.64s-5.79-1.34-7.67-3.64c-14.16-17.35-37.1-35.04-54.05-32.89
	c-14.09,1.79-27.37,15.42-31.59,32.43c-4.04,16.31-1.07,33.25,9.06,51.78c11.52,21.04,30.19,39.89,45.16,53.97
	C160.67,315.34,169.39,322.65,178.4,329.36z M210.29,337.54L210.29,337.54L210.29,337.54z"/>
</svg>
